PathFileType	4	(X/Y/Z)	C:/Users/opensim2020/Desktop/walking_exp_matlab/subject03_walking11_straight_01.trc	
DataRate	CameraRate	NumFrames	NumMarkers	Units	OrigDataRate	OrigDataStartFrame	OrigNumFrames	
100.00	100.00	5	46	mm	100.00	747	454	
Frame#	Time	LFHD			RFHD			LBHD			RBHD			C7			T10			CLAV			STRN			RBAK			LSHO			LUPA			LELB			LFRM			LWRA			LWRB			LFIN			RSHO			RUPA			RELB			RFRM			RWRA			RWRB			RFIN			LASI			RASI			LPSI			RPSI			LTHI			LKNE			LTIB			LANK			LHEE			LTOE			RTHI			RKNE			RTIB			RANK			RHEE			RTOE			*39			*40			*41			*42			*43			*44			*45			
		X1	Y1	Z1	X2	Y2	Z2	X3	Y3	Z3	X4	Y4	Z4	X5	Y5	Z5	X6	Y6	Z6	X7	Y7	Z7	X8	Y8	Z8	X9	Y9	Z9	X10	Y10	Z10	X11	Y11	Z11	X12	Y12	Z12	X13	Y13	Z13	X14	Y14	Z14	X15	Y15	Z15	X16	Y16	Z16	X17	Y17	Z17	X18	Y18	Z18	X19	Y19	Z19	X20	Y20	Z20	X21	Y21	Z21	X22	Y22	Z22	X23	Y23	Z23	X24	Y24	Z24	X25	Y25	Z25	X26	Y26	Z26	X27	Y27	Z27	X28	Y28	Z28	X29	Y29	Z29	X30	Y30	Z30	X31	Y31	Z31	X32	Y32	Z32	X33	Y33	Z33	X34	Y34	Z34	X35	Y35	Z35	X36	Y36	Z36	X37	Y37	Z37	X38	Y38	Z38	X39	Y39	Z39	X40	Y40	Z40	X41	Y41	Z41	X42	Y42	Z42	X43	Y43	Z43	X44	Y44	Z44	X45	Y45	Z45	X46	Y46	Z46	

114	1.130	1344.69397	-789.03296	1627.71509	1477.87231	-787.39996	1635.51282	1353.19470	-913.08905	1572.92615	1483.90784	-906.37024	1580.70276	1414.76221	-929.73047	1420.82532	1418.73071	-967.86218	1110.56384	1411.13562	-808.01813	1343.63818	1407.71375	-767.08856	1177.49060	1516.26770	-980.47131	1250.09473	1256.54260	-860.30457	1379.65234	1192.08569	-891.69562	1181.44495	1183.89514	-899.41919	1057.92969	1185.52966	-887.18744	927.78918	1218.09619	-881.93671	807.51520	1166.99304	-905.46417	815.97571	1180.10596	-904.24756	730.32544	1571.58728	-846.04633	1371.48315	1647.86060	-834.85284	1151.21106	1658.45471	-812.50604	1039.82861	1655.44934	-785.06879	905.73633	1611.26965	-756.88898	812.50000	1661.92578	-775.18329	806.16498	1644.86633	-750.93414	736.31244	1298.21191	-809.34344	946.13306	1534.36743	-809.94446	935.59711	1346.47791	-970.86407	973.79004	1496.48694	-968.19891	976.69098	1255.72827	-847.62000	646.19336	1297.68701	-818.18695	471.13150	1293.34265	-840.90442	278.87741	1331.36597	-823.02252	69.51057	1368.76440	-861.42401	35.45773	1346.97083	-668.68323	36.25425	1587.98303	-893.78467	644.76215	1570.15112	-897.43579	463.38028	1579.81677	-1031.28540	321.86514	1541.68604	-1168.86023	151.34233	1492.64551	-1223.06201	153.08142	1505.12854	-1083.80090	36.26552	1396.23145	-874.85663	1683.51685																		 
115	1.140	1342.60632	-783.07599	1627.64368	1475.78845	-781.62988	1635.70264	1351.03101	-906.80719	1572.86755	1481.62866	-900.21576	1580.78699	1412.65662	-923.53729	1420.85706	1416.59253	-961.36078	1110.37756	1409.50696	-801.89215	1343.70850	1406.40417	-760.50995	1177.72119	1513.71924	-974.60004	1249.63330	1254.72327	-853.71924	1379.40515	1189.94250	-883.53033	1181.12207	1181.39844	-890.42004	1057.47351	1183.72009	-876.75226	927.48810	1216.26111	-870.61377	807.29663	1164.85205	-893.64264	815.45398	1177.99768	-891.24799	729.94061	1569.85974	-840.88647	1371.58252	1646.42908	-830.11517	1151.33997	1657.32263	-808.08752	1039.90527	1654.47705	-780.63696	905.82758	1610.38269	-752.30817	812.56207	1660.91614	-770.70123	806.30347	1643.65723	-746.60333	736.27417	1296.62195	-802.84479	946.00232	1532.75952	-803.83911	935.54315	1344.71631	-964.37439	974.27734	1494.66260	-962.19293	976.43024	1254.31970	-842.78253	646.48962	1296.52332	-814.69769	471.15231	1292.51001	-839.01410	278.83630	1331.33020	-823.10431	69.45134	1368.68152	-861.42474	35.43972	1346.92834	-668.76642	36.03201	1587.48511	-883.57526	643.81525	1569.83337	-884.10938	462.42853	1579.69641	-1019.25269	322.95023	1542.32690	-1160.53345	155.85983	1493.21948	-1214.64209	159.80272	1505.46326	-1081.96985	36.79569																					 
116	1.150	1340.65479	-776.93329	1627.68030	1473.84045	-775.80914	1635.88708	1348.97290	-900.83069	1572.74744	1479.60144	-894.43555	1580.87366	1410.65625	-918.02222	1421.01367	1414.48999	-954.88770	1110.14319	1407.98706	-795.89075	1343.69617	1405.03589	-754.23517	1177.67981	1511.24866	-968.87683	1249.18103	1252.90210	-847.08746	1378.99902	1187.67908	-875.54102	1180.68640	1178.90735	-881.19702	1057.07288	1181.54309	-866.19739	927.08008	1214.32800	-858.82062	807.29523	1162.73181	-881.53857	814.89130	1175.90857	-877.83984	729.51550	1568.26111	-835.66656	1371.51465	1645.07532	-825.59253	1151.36145	1656.23145	-803.59894	1039.86938	1653.52197	-776.10901	905.81873	1609.44373	-747.50360	812.65271	1659.91260	-766.19019	806.27692	1642.73181	-741.95465	736.32483	1295.23474	-796.38043	945.83838	1531.34631	-797.86456	935.41492	1343.09204	-957.96149	974.67041	1492.96521	-956.34558	976.11371	1253.49866	-838.29517	646.92682	1295.21484	-811.26270	471.23163	1291.60486	-837.28491	278.89853	1331.24414	-823.05066	69.41372	1368.60620	-861.49658	35.40094	1346.86938	-668.77228	36.01907	1586.91187	-873.66034	642.94629	1569.15613	-870.54230	461.58960	1579.45349	-1006.64435	323.70282	1542.73230	-1151.40735	160.01147	1493.71594	-1205.49573	166.27525	1506.03687	-1079.43213	37.40202																					 
117	1.160	1338.71973	-770.92566	1627.53516	1471.85730	-770.22766	1635.94153	1347.00293	-894.79718	1572.56494	1477.66138	-888.64545	1580.94226	1408.59216	-911.52991	1420.66711	1412.56580	-948.63373	1109.98804	1406.60400	-789.89172	1343.70959	1403.92444	-747.87439	1177.83252	1508.74207	-963.32550	1248.71887	1251.21606	-840.57471	1378.53394	1185.55261	-867.16730	1180.06897	1176.73218	-871.61444	1056.39319	1179.43701	-855.44031	926.74408	1212.42737	-847.11530	806.99316	1160.81689	-869.05890	814.26910	1173.73169	-864.00891	729.19788	1566.87708	-830.26349	1371.35876	1643.73438	-821.08575	1151.29724	1655.18970	-799.10724	1039.80908	1652.59106	-771.60620	905.75891	1608.54407	-742.80475	812.57037	1658.91248	-761.64343	806.23322	1641.96191	-737.17352	736.42578	1293.86829	-789.93042	945.75024	1530.14270	-792.12140	935.20978	1341.51855	-951.66022	975.01691	1491.39868	-950.58795	975.69214	1252.23474	-833.41626	647.15881	1293.93860	-807.97290	471.29959	1290.67859	-835.54181	278.92438	1331.10510	-823.14008	69.47607	1368.49805	-861.54016	35.34162	1347.13062	-668.92603	35.88028	1585.46057	-863.09143	641.98053	1568.14807	-857.02570	460.83005	1579.08777	-993.64667	324.19684	1542.84351	-1141.82654	164.04178	1493.97925	-1196.04053	172.15399	1507.03223	-1074.80994	39.18004																					 
118	1.170	1336.87109	-765.00934	1627.39795	1470.16162	-764.35907	1636.14221	1345.06274	-888.73877	1572.38000	1475.67126	-882.85065	1580.97534	1406.63708	-905.69275	1420.64392	1410.78711	-942.61658	1109.90466	1405.25464	-783.99078	1343.62891	1402.90967	-741.86896	1177.74878	1506.30798	-957.99652	1248.52002	1249.59888	-834.07056	1378.20349	1183.50427	-858.95258	1179.62305	1174.27026	-862.61768	1055.93738	1177.38501	-844.35962	926.42163	1210.96802	-834.50006	807.33038	1158.62085	-856.52216	813.84888	1171.49072	-849.84540	729.02045	1565.44141	-825.29022	1371.30969	1642.52234	-816.69525	1151.31042	1654.09094	-794.73309	1039.68567	1651.55750	-767.14490	905.68359	1607.66541	-738.00232	812.50000	1657.93982	-757.07758	806.20984	1641.15369	-732.27826	736.51672	1292.86353	-783.78491	945.91956	1529.07776	-786.50159	935.01514	1340.17627	-945.75275	975.42847	1489.89893	-944.95050	975.17346	1250.99634	-828.43970	647.47955	1292.74097	-804.62958	471.32156	1289.90979	-833.38531	278.99808	1331.02563	-823.28217	69.44100	1368.35413	-861.63776	35.31271	1347.07727	-668.86597	35.87514	1584.23511	-853.35492	641.29187	1566.89221	-843.67090	460.29456	1578.46826	-980.66815	324.75726	1542.76782	-1132.43359	168.17345	1493.50684	-1186.51770	176.72682	1508.84985	-1066.72876	42.18605	1387.73474	-851.39478	1683.62805																		 
